<?xml version="1.0" encoding="UTF-8"?>
<svg version="1.1" viewBox="0 0 1024 768" xmlns="http://www.w3.org/2000/svg">
 <defs>
  <filter id="a">
   <feGaussianBlur stdDeviation="5.18922"/>
  </filter>
 </defs>
 <path d="m225.49 458.18 637.09 91.083-34.841-356.7" fill="none" filter="url(#a)" stroke="#1a1a1a" stroke-linejoin="round" stroke-width="16"/>
 <path d="m163.97 184.4h692.96v357.8h-692.96z" fill="#ffe680"/>
 <path d="m124.58 415.33 209.59 160.35-19.885 3.7192 2.0681 19.569-18.972 2.525c-3.8353 5.013 3.8851 17.194 1.1544 20.763l-19.252 0.417 3.2624 20.482-209.59-160.35 14.018-3.4747 0.14411-15.036 15.669-3.1581-0.59331-16.547c3.7883-4.9514 15.442-1.6234 18.094-5.0898l4.2918-24.169z" fill="#e8dede" fill-opacity=".755" opacity=".57923"/>
 <path d="m699.28 120.78 226.15 136-19.347 5.9118 4.2356 19.216-18.572 4.6232c-3.2528 5.4091 5.7767 16.654 3.4607 20.505l-19.086 2.5596 5.5243 19.991-226.15-136 13.544-5.015-1.5322-14.959 15.22-4.8844-2.4334-16.378c3.213-5.3427 15.165-3.3339 17.414-7.0742l1.572-24.497z" fill="#e8dede" fill-opacity=".755" opacity=".57923"/>
</svg>
